<?xml version="1.0" encoding="UTF-8" standalone="no"?>
<svg
   width="140mm"
   height="46mm"
   viewBox="0 0 40.7974 13.40486"
   version="1.1"
   id="svg10"
   sodipodi:docname="postgresql.svg"
   inkscape:version="1.1.2 (0a00cf5339, 2022-02-04, custom)"
   xmlns:inkscape="http://www.inkscape.org/namespaces/inkscape"
   xmlns:sodipodi="http://sodipodi.sourceforge.net/DTD/sodipodi-0.dtd"
   xmlns="http://www.w3.org/2000/svg"
   xmlns:svg="http://www.w3.org/2000/svg">
  <defs
     id="defs14" />
  <sodipodi:namedview
     id="namedview12"
     pagecolor="#ffffff"
     bordercolor="#cccccc"
     borderopacity="1"
     inkscape:pageshadow="0"
     inkscape:pageopacity="1"
     inkscape:pagecheckerboard="0"
     showgrid="false"
     inkscape:zoom="0.88501691"
     inkscape:cx="324.28759"
     inkscape:cy="163.27372"
     inkscape:window-width="1920"
     inkscape:window-height="983"
     inkscape:window-x="0"
     inkscape:window-y="32"
     inkscape:window-maximized="1"
     inkscape:current-layer="svg10"
     units="mm"
     inkscape:document-units="mm"
     width="900mm"
     scale-x="0.29141" />
  <path
     d="M 2.6515681,8.1176851 C 2.683357,7.5059118 2.3802513,7.3958709 2.1688179,7.3360979 2.1912902,7.3044061 2.2212609,7.2671093 2.2548462,7.2241866 2.3633455,7.091749 2.5000147,6.9200623 2.6103161,6.6533901 2.6271543,6.6123361 2.6777093,6.5228258 2.7431576,6.4052961 3.0219153,5.9072354 3.5719877,4.9242206 3.4634896,4.2508011 3.3867729,3.7714651 3.0200372,3.4543075 2.1051025,3.549441 2.1069925,3.540201 2.1107425,3.530802 2.1143725,3.521419 2.1574216,3.3983431 2.2266237,3.2360232 2.3276826,3.0551176 2.7282363,2.3295722 3.5982403,1.3167442 5.1474741,1.2924743 7.0165581,1.2607899 7.3571495,3.1149036 7.4188382,3.8946176 A 2.0139245,2.0077977 0 0 0 7.1343771,3.7491463 C 6.9773363,3.6857685 6.7995638,3.6316167 6.6217941,3.6036012 6.4365822,3.5756429 6.2494907,3.5794093 6.0810389,3.6315595 5.8172357,3.713663 5.6076873,3.9095419 5.525339,4.2825821 c -0.2880756,1.3337307 -0.0299,1.9082722 0.1722782,2.3577933 0.147862,0.3245751 0.086468,0.186087 0.1792826,0.4464257 0.033879,0.094843 0.063635,0.1841436 0.08437,0.2660999 A 0.44641512,0.44505703 0 0 0 5.8939478,7.341766 C 5.7723043,7.330596 5.6301508,7.379072 5.5309727,7.449932 5.4243524,7.526416 5.3383182,7.6458142 5.289633,7.7782517 5.246589,7.9013972 5.252216,8.0189275 5.254093,8.1476195 5.267163,8.7463581 5.263383,9.3376786 5.241023,9.8189594 5.2185593,10.298368 5.1792773,10.656504 5.1269027,10.790813 5.0707747,10.930649 4.9809143,11.137696 4.8106559,11.281367 4.6460323,11.421221 4.3915454,11.505191 3.9874607,11.419351 3.6337872,11.342842 3.3943276,11.23475 3.2371435,11.070554 3.0780807,10.908234 2.9901698,10.67692 2.9340429,10.356089 2.8947451,10.121029 2.8386174,9.710685 2.786177,9.3040829 2.7226152,8.8078969 2.6664832,8.2987448 2.6515316,8.1176968 Z m 4.3913294,0.29296 C 6.4273786,8.2837522 6.3655456,8.2073438 6.1671875,7.9555061 A 2.9781232,2.9690631 0 0 0 5.9389241,7.6981195 0.1112426,0.11090417 0 0 0 5.8659666,7.6644899 c -0.044864,-0.00373 -0.108496,0.020523 -0.1478622,0.048534 -0.05237,0.037308 -0.09722,0.1007447 -0.1234449,0.1716137 -0.024267,0.072808 -0.033732,0.1623226 0.01316,0.2275679 0.2301351,0.3190288 0.5127197,0.4532666 0.7765235,0.4980604 0.267488,0.046591 0.5200225,0 0.6717181,-0.037303 0.07476,-0.018736 0.1608677,-0.054157 0.2169928,-0.093334 -0.044849,-0.022407 -0.119841,-0.046674 -0.2301447,-0.06899 z M 7.2206699,7.2429099 A 1.660332,1.6552809 0 0 0 7.3629007,7.1067256 C 7.5966546,6.8511438 7.7538372,6.515407 7.7893775,6.1404941 A 1.7036733,1.6984903 0 0 0 7.7801613,5.7282046 C 7.7015605,5.1667691 7.7314593,4.6612197 7.7483065,4.3982177 7.7522265,4.3292277 7.7559865,4.2769412 7.7538965,4.235968 7.7557165,4.222938 7.7987445,2.5348121 6.8352692,1.5909022 7.7052039,1.3055037 10.517474,0.62092225 10.363973,3.7024737 10.341486,4.1519957 9.9841464,5.9893328 9.4415134,7.2708521 9.2713983,7.6737802 9.0822859,8.0188801 8.882121,8.2408317 8.715619,8.42548 8.5453593,8.5150669 8.3807357,8.4553668 8.2908747,8.4236096 8.1936454,8.3489988 8.0906392,8.2258515 A 21.140865,21.07655 0 0 0 7.2207036,7.2429099 Z M 3.7834973,1.2570376 C 2.9022236,1.6450575 2.3483955,2.3482194 2.0452955,2.9004354 A 3.321386,3.3112816 0 0 0 1.8095196,3.4152761 c -0.05613,0.1566356 -0.076717,0.2797819 -0.067322,0.3338641 0,0.00562 0.00189,0.011228 0.00189,0.016788 -0.00754,0.2294416 0.020586,0.4178347 0.052442,0.6155909 0.022474,0.152962 0.046733,0.3115411 0.05425,0.4980604 0.00564,0.1772307 -0.01684,0.3637505 -0.041166,0.5577615 -0.059886,0.4943148 -0.1234494,1.0203184 0.2095543,1.5649727 -0.00564,0.00752 -0.011262,0.014968 -0.01684,0.020583 -0.01307,0.016692 -0.026218,0.03356 -0.0393,0.048464 C 1.3886235,6.1703699 0.96951295,5.1798667 0.73005229,4.3125093 0.45317366,3.3145872 0.41012123,2.5012419 0.63838549,2.2084265 1.0331517,1.7066208 1.5158292,1.4324577 1.9967724,1.2925313 2.6796862,1.0965761 3.360722,1.1711847 3.7835892,1.2570274 Z m 3.6466531,2.9770568 c 0,0.048463 -0.00392,0.097012 -0.00559,0.145472 -0.016743,0.2704912 -0.048683,0.7946927 0.03554,1.3934305 0.016743,0.115659 0.018796,0.2294414 0.00754,0.3376107 A 1.3345501,1.3304901 0 0 1 7.1233573,6.8884488 C 6.9381469,7.0917484 6.6930505,7.2297303 6.4235412,7.267108 6.3748572,7.2746234 6.3243682,7.2763513 6.2756761,7.2782464 6.2512768,7.1795251 6.2171012,7.0772584 6.178012,6.9702419 6.1242037,6.8228424 6.1093971,6.7629974 5.9931003,6.5079179 5.8096949,6.1012448 5.5759475,5.5827322 5.8434268,4.3496787 5.8939178,4.1109465 6.0211986,3.9878004 6.176504,3.9393334 6.2943178,3.9019553 6.4327226,3.9019553 6.5749547,3.9225451 6.7246286,3.94495 6.8761784,3.9934071 7.0127738,4.0474907 7.2487667,4.1445714 7.4283446,4.2265917 7.4301504,4.2340823 Z M 6.4703586,4.0997847 c -0.1193343,-0.025501 -0.2817171,-0.00365 -0.389277,0.054084 -0.061694,0.03543 -0.09535,0.082092 -0.08971,0.1324374 0.00559,0.03918 0.044849,0.095134 0.1046712,0.1361812 0.056131,0.037306 0.1329149,0.065315 0.2151887,0.054084 h 0.00182 c 0.080399,-0.01117 0.1515467,-0.05783 0.2020416,-0.1100427 0.048826,-0.052211 0.07931,-0.1085263 0.076645,-0.156993 -0.00272,-0.048463 -0.038204,-0.089015 -0.1215062,-0.1097522 z M 2.0678332,3.87596 C 2.8087523,3.784499 3.0950214,3.9859981 3.1455137,4.3012848 3.2353749,4.864592 2.7226476,5.7823595 2.4607936,6.2505339 2.3897155,6.375554 2.337271,6.4725581 2.3129284,6.530316 2.2848847,6.5937575 2.2568006,6.6534628 2.2269002,6.7056731 2.032367,6.2953275 2.0828603,5.873747 2.131472,5.4745652 2.1558192,5.267519 2.1800829,5.066019 2.1745181,4.8701371 2.1670008,4.6668364 2.1407849,4.4970953 2.1165111,4.3347725 2.0920904,4.1837547 2.0696331,4.0382119 2.0678269,3.87596 Z m -0.091741,3.7399915 c 0.024362,0.00752 0.052442,0.014905 0.080466,0.024193 0.1122546,0.031755 0.2900252,0.08023 0.2713169,0.464502 -0.015012,0.014904 -0.063636,0.029808 -0.1365965,0.042925 -0.1141335,0.024287 -0.265683,0.028022 -0.426623,0.020458 C 1.4840204,8.1513065 1.1846778,8.0915477 0.99375935,8.0039742 0.79727941,7.9125136 0.6326541,7.8024748 0.53166971,7.7054705 0.95323471,7.7837534 1.5936749,7.9038039 1.9760894,7.6159572 Z M 2.3689816,4.0997847 c -0.00564,0.033555 0.022473,0.091388 0.069201,0.1399278 0.056628,0.058696 0.1223665,0.09448 0.1920012,0.1022673 0.054176,0.00604 0.1107367,-0.00478 0.1672264,-0.035139 0.066526,-0.036797 0.1152844,-0.086851 0.1161514,-0.1371894 6.097e-4,-0.034422 -0.021159,-0.06899 -0.075058,-0.099745 -0.044923,-0.024257 -0.1084961,-0.044787 -0.1796504,-0.05596 -0.071078,-0.00936 -0.1384758,-0.00752 -0.18897,0.00562 -0.057859,0.01312 -0.095205,0.041053 -0.1009185,0.080228 z M 1.7815628,7.3865094 c -0.074836,0.070937 -0.3274442,0.1809744 -1.17505449,0.00562 -0.16462392,-0.03356 -0.28063579,-0.026075 -0.35547067,0.00936 -0.0973029,0.04659 -0.14035195,0.1230767 -0.1328417,0.2237541 0.003731,0.061567 0.0317885,0.1249456 0.0785961,0.1903355 0.10856925,0.1492227 0.35734902,0.339487 0.66232744,0.481286 0.22638652,0.1044235 0.57253862,0.1753572 0.88878442,0.1940088 0.1852115,0.00924 0.3629836,0.00189 0.5070212,-0.026139 0.035538,-0.00752 0.071078,-0.016787 0.1029326,-0.026074 0.026155,0.2368589 0.065514,0.5688513 0.1084972,0.9046607 0.052443,0.4215801 0.1104451,0.8394155 0.1496705,1.0669825 0.067395,0.386078 0.1795782,0.669677 0.3873278,0.88414 0.2077483,0.214471 0.4977023,0.350653 0.9168127,0.440245 0.5238503,0.111926 0.8681966,-0.01123 1.1001453,-0.205249 C 5.2485767,11.337305 5.3570734,11.081724 5.426348,10.910109 5.495549,10.740441 5.5405516,10.34313 5.5648239,9.8338352 5.5815669,9.4626679 5.5890909,9.0243096 5.5854079,8.5690965 5.8211774,8.7817601 6.0811519,8.8861815 6.328197,8.929176 6.6554951,8.9850602 6.9549109,8.9310618 7.1344888,8.8861794 7.2655245,8.852611 7.4283434,8.779804 7.5237669,8.6902878 7.5798977,8.6380055 7.6173101,8.5765743 7.6285811,8.50571 7.6396349,8.4235424 7.6154224,8.3433891 7.5387177,8.2725239 7.4657647,8.2034698 7.331044,8.1419706 7.1066091,8.0953048 6.6088336,7.9927582 6.5639752,7.9367989 6.4218175,7.7558225 A 2.7310055,2.7226972 0 0 0 6.3076827,7.6215147 c 0.00182,-0.00752 0.00182,-0.014905 0.00182,-0.022406 A 1.4502713,1.4458593 0 0 0 6.4685086,7.5859898 1.4532329,1.4488118 0 0 0 6.9513319,7.427484 C 7.0860512,7.5692823 7.4470835,7.9591047 7.8419943,8.4328964 7.9822043,8.6026365 8.128265,8.7071316 8.274107,8.7593426 8.5827625,8.8693871 8.865418,8.7407058 9.1235883,8.4571672 9.348081,8.2072187 9.5539538,7.832233 9.7391637,7.395818 10.29675,6.0788671 10.663416,4.1818304 10.687834,3.7173291 10.878586,-0.10289473 7.138377,1.130086 6.5434466,1.3501665 6.1897804,1.1095622 5.7331849,0.96034499 5.1420133,0.96963583 4.8557434,0.9732842 4.5881847,1.0087404 4.3430902,1.0685173 4.2252033,1.0368255 4.0586993,0.99016209 4.0493067,0.98642432 4.0268329,0.98081028 4.000695,0.97525582 3.9669633,0.96778483 3.5272668,0.86516629 2.7227079,0.74957755 1.9069528,0.98457228 1.3681478,1.1394046 0.82739283,1.4472015 0.38393941,2.0105081 0.09203819,2.3835499 0.11638093,3.3050615 0.41947717,4.3981168 0.6795254,5.3384254 1.1435662,6.4203174 1.7816209,7.3865519 Z"
     fill="#fff"
     id="path6"
     style="clip-rule:evenodd;fill:#ffffff;fill-opacity:1;fill-rule:evenodd;stroke-width:0.0721256" />
  <text
     xml:space="preserve"
     style="font-size:5.65237px;line-height:1.25;font-family:Freebooter;-inkscape-font-specification:Freebooter;clip-rule:evenodd;fill:#ffffff;fill-rule:evenodd;stroke-width:0.0294392"
     x="10.571838"
     y="7.6782184"
     id="text2350"
     transform="scale(0.97661724,1.0239426)"><tspan
       sodipodi:role="line"
       id="tspan2348"
       style="font-size:5.65237px;fill:#ffffff;stroke-width:0.0294392"
       x="10.571838"
       y="7.6782184"><tspan
         style="fill:#ffffff;stroke-width:0.0294392"
         id="tspan9306">Postgre</tspan><tspan
         style="fill:#ffffff;stroke-width:0.0294392"
         id="tspan5943">SQL</tspan></tspan></text>
</svg>
