<?xml version="1.0" encoding="UTF-8" standalone="no"?>
<svg
   width="120mm"
   height="40mm"
   version="1.1"
   id="svg43"
   sodipodi:docname="python_white.svg"
   inkscape:version="1.1.2 (0a00cf5339, 2022-02-04, custom)"
   xmlns:inkscape="http://www.inkscape.org/namespaces/inkscape"
   xmlns:sodipodi="http://sodipodi.sourceforge.net/DTD/sodipodi-0.dtd"
   xmlns="http://www.w3.org/2000/svg"
   xmlns:svg="http://www.w3.org/2000/svg"
   xmlns:rdf="http://www.w3.org/1999/02/22-rdf-syntax-ns#"
   xmlns:cc="http://creativecommons.org/ns#"
   xmlns:dc="http://purl.org/dc/elements/1.1/">
  <sodipodi:namedview
     id="namedview45"
     pagecolor="#ffffff"
     bordercolor="#cccccc"
     borderopacity="1"
     inkscape:pageshadow="0"
     inkscape:pageopacity="1"
     inkscape:pagecheckerboard="0"
     inkscape:document-units="mm"
     showgrid="false"
     inkscape:zoom="1.7129331"
     inkscape:cx="217.75515"
     inkscape:cy="115.29931"
     inkscape:window-width="1920"
     inkscape:window-height="983"
     inkscape:window-x="0"
     inkscape:window-y="32"
     inkscape:window-maximized="1"
     inkscape:current-layer="svg43"
     units="mm"
     width="10000000mm"
     height="40mm" />
  <title
     id="title2">Python programming language logo</title>
  <metadata
     id="metadata4">
    <rdf:RDF>
      <dc:format>image/svg+xml</dc:format>
      <dc:type
         rdf:resource="http://purl.org/dc/dcmitype/StillImage" />
      <dc:title />
      <cc:Work
         rdf:about="">
        <dc:title>Python programming language logo</dc:title>
      </cc:Work>
    </rdf:RDF>
  </metadata>
  <defs
     id="defs21">
    <linearGradient
       id="vlpc"
       x1="151"
       x2="112"
       y1="192.39999"
       y2="137.3"
       gradientTransform="matrix(0.5625,0,0,0.568,-9.4,-5.305)"
       gradientUnits="userSpaceOnUse">
      <stop
         style="stop-color:#ffd43b"
         offset="0"
         id="stop6" />
      <stop
         style="stop-color:#ffe873"
         offset="1"
         id="stop8" />
    </linearGradient>
    <linearGradient
       id="vlpb"
       x1="26.65"
       x2="135.7"
       y1="20.6"
       y2="114.4"
       gradientTransform="matrix(0.5625,0,0,0.568,-9.4,-5.305)"
       gradientUnits="userSpaceOnUse">
      <stop
         style="stop-color:#5a9fd4"
         offset="0"
         id="stop11" />
      <stop
         style="stop-color:#306998"
         offset="1"
         id="stop13" />
    </linearGradient>
    <radialGradient
       id="vlpa"
       cx="61.52"
       cy="132.3"
       r="29.040001"
       gradientTransform="matrix(2.383e-8,-0.2964,1.437,4.684e-7,-128.5,150.5)"
       gradientUnits="userSpaceOnUse">
      <stop
         style="stop-color:#b8b8b8;stop-opacity:.498"
         offset="0"
         id="stop16" />
      <stop
         style="stop-color:#7f7f7f;stop-opacity:0"
         offset="1"
         id="stop18" />
    </radialGradient>
  </defs>
  <path
     d="m 188.81374,75.699904 c 0,-12.440279 -3.54753,-18.831301 -10.64601,-19.181611 -2.82298,-0.133289 -5.58018,0.316475 -8.26133,1.357665 -2.14031,0.766154 -3.58086,1.524276 -4.33872,2.289831 v 29.699458 c 4.53865,2.848619 8.56978,4.172107 12.08142,3.964484 7.43683,-0.491374 11.15866,-6.529437 11.15866,-18.130681 z m 8.74921,0.516323 c 0,6.320961 -1.48241,11.568776 -4.46347,15.73832 -3.32281,4.722352 -7.92811,7.154013 -13.81588,7.287303 -4.43869,0.14158 -9.01408,-1.249152 -13.71336,-4.164415 V 122.0684 l -7.61198,-2.71533 V 59.441502 c 1.24915,-1.531966 2.85631,-2.848619 4.80523,-3.964484 4.53011,-2.640142 10.03937,-3.997807 16.51584,-4.064451 l 0.10825,0.108254 c 5.92109,-0.07496 10.48367,2.356476 13.68772,7.287303 2.9896,4.522418 4.4891,10.321331 4.4891,17.404429 z"
     style="fill:#ffffff;stroke-width:0.854415"
     id="path23" />
  <path
     d="m 244.09438,93.933115 c 0,8.478365 -0.84946,14.345625 -2.54872,17.618035 -1.70712,3.26472 -4.95561,5.87154 -9.74888,7.81191 -3.88929,1.53197 -8.09472,2.36502 -12.61116,2.50685 l -1.2577,-4.79668 c 4.58907,-0.62458 7.82046,-1.24915 9.69761,-1.87373 3.68936,-1.24916 6.221,-3.16475 7.61198,-5.72971 1.11587,-2.09075 1.66526,-6.07915 1.66526,-11.987434 v -1.982242 c -5.2051,2.36502 -10.6631,3.539836 -16.36205,3.539836 -3.74746,0 -7.05404,-1.173962 -9.90266,-3.539836 -3.19808,-2.573499 -4.79669,-5.838218 -4.79669,-9.791595 v -31.6817 L 213.45335,51.42 v 31.886759 c 0,3.406552 1.09964,6.029605 3.29804,7.870014 2.19841,1.84041 5.04703,2.72302 8.53646,2.656376 3.48943,-0.07496 7.22835,-1.424309 11.20138,-4.064451 V 52.567479 h 7.61198 v 41.362219 z"
     style="fill:#ffffff;stroke-width:0.854415"
     id="path25" />
  <path
     d="m 273.82801,98.82891 c -0.90739,0.0749 -1.74044,0.10826 -2.50685,0.10826 -4.3054,0 -7.66154,-1.024445 -10.05647,-3.081022 -2.38979,-2.057432 -3.58939,-4.896652 -3.58939,-8.519371 V 57.355363 h -5.21364 v -4.788995 h 5.21364 V 39.852676 l 7.60344,-2.706785 v 15.422186 h 8.55269 v 4.788995 h -8.55269 v 29.776354 c 0,2.856309 0.76615,4.880418 2.29837,6.062928 1.3158,0.974032 3.40655,1.531967 6.25432,1.6738 v 3.964486 z"
     style="fill:#ffffff;stroke-width:0.854415"
     id="path27" />
  <path
     d="m 319.88097,98.20519 h -7.61199 V 68.821865 c 0,-2.989597 -0.69959,-5.563094 -2.09075,-7.711947 -1.60715,-2.431665 -3.83888,-3.647497 -6.70374,-3.647497 -3.48943,0 -7.85378,1.84041 -13.08963,5.521228 V 98.20263 h -7.61198 V 27.969732 l 7.61198,-2.398342 v 31.989289 c 4.86333,-3.539841 10.17608,-5.313606 15.95192,-5.313606 4.03113,0 7.295,1.357665 9.7916,4.064451 2.50685,2.706786 3.756,6.079162 3.756,10.107727 V 98.19494 Z"
     style="fill:#ffffff;stroke-width:0.854415"
     id="path29" />
  <path
     d="m 360.38023,74.503724 c 0,-4.780451 -0.90739,-8.723575 -2.71533,-11.850733 -2.14886,-3.805564 -5.48791,-5.812584 -10.0052,-6.021061 -8.34507,0.483001 -12.50863,6.462793 -12.50863,17.925622 0,5.254651 0.86637,9.646343 2.61536,13.166531 2.23173,4.489096 5.58018,6.703739 10.04792,6.629405 8.37839,-0.06663 12.56844,-6.678961 12.56844,-19.848056 z m 8.33652,0.04997 c 0,6.803705 -1.74044,12.465911 -5.21364,16.985765 -3.82265,5.063264 -9.09952,7.603441 -15.84085,7.603441 -6.67896,0 -11.88491,-2.540177 -15.64433,-7.603441 -3.40655,-4.522417 -5.10513,-10.184624 -5.10513,-16.985765 0,-6.396149 1.84041,-11.773836 5.52123,-16.156983 3.88929,-4.647162 9.00553,-6.97886 15.31965,-6.97886 6.32096,0 11.46625,2.331698 15.43073,6.97886 3.68082,4.380584 5.52123,9.757416 5.52123,16.156983 z"
     style="fill:#ffffff;stroke-width:0.854415"
     id="path31" />
  <path
     d="m 412.32864,98.20519 h -7.61198 V 67.155757 c 0,-3.406552 -1.02444,-6.062928 -3.07333,-7.978525 -2.04888,-1.907054 -4.78045,-2.831531 -8.18615,-2.756342 -3.61417,0.06663 -7.05404,1.249154 -10.32133,3.53984 v 38.24361 h -7.61198 V 59.020874 c 4.38059,-3.189531 8.41172,-5.271739 12.08997,-6.245772 3.4732,-0.907389 6.53713,-1.357665 9.17642,-1.357665 1.80708,0 3.50651,0.174898 5.10512,0.524696 2.9896,0.691221 5.42127,1.973698 7.295,3.855974 2.09075,2.082208 3.13143,4.580517 3.13143,7.50347 V 98.20442 Z"
     style="fill:#ffffff;stroke-width:0.854415"
     id="path33" />
  <path
     d="M 68.917589,6.6810213 C 63.298513,6.7071311 57.933179,7.186297 53.215068,8.022048 39.302219,10.479782 36.777067,15.62202 36.777067,25.109725 v 12.527694 h 32.863744 v 4.17508 H 36.777067 24.445502 c -9.551447,0 -17.9212209,5.741655 -20.5321789,16.658646 -3.01792404,12.515435 -3.15153604,20.33605 0,33.403097 2.336378,9.730408 7.9162279,16.658648 17.4676749,16.658648 H 32.681664 V 93.516819 c 0,-10.848349 9.385964,-20.42186 20.532179,-20.42186 h 32.826969 c 9.13835,0 16.437998,-7.523971 16.437998,-16.695419 V 25.104822 c 0,-8.906675 -7.514158,-15.592198 -16.437998,-17.087677 C 80.39477,7.0773236 74.536663,6.6503764 68.916363,6.6761185 Z M 51.143464,16.755886 c 3.395471,0 6.167008,2.818118 6.167008,6.282235 -3e-6,3.451857 -2.772763,6.244233 -6.167008,6.244233 -3.406504,-1e-6 -6.167009,-2.791151 -6.167009,-6.244233 -1e-6,-3.464117 2.760505,-6.282235 6.167009,-6.282235 z"
     style="fill:#ffffff;stroke-width:1.22581"
     id="path35" />
  <path
     d="m 106.57422,41.802693 v 14.599299 c 0,11.315375 -9.593128,20.838629 -20.532178,20.838629 H 53.215068 c -8.992481,0 -16.438001,7.695582 -16.438001,16.695414 v 31.294725 c 0,8.90668 7.745842,14.14575 16.438001,16.69542 10.403379,3.0596 20.385082,3.61244 32.826974,0 8.27416,-2.39522 16.437998,-7.21752 16.437998,-16.69542 V 112.70307 H 69.65307 v -4.17508 h 32.82697 16.438 c 9.55145,0 13.11608,-6.66224 16.438,-16.658652 3.43102,-10.295509 3.28514,-20.201213 0,-33.403097 -2.3609,-9.508543 -6.86939,-16.658645 -16.438,-16.658645 H 106.58648 Z M 88.113642,121.06303 c 3.4065,0 6.16701,2.79115 6.16701,6.24424 0,3.46412 -2.76051,6.28223 -6.16701,6.28223 -3.39547,0 -6.16701,-2.81811 -6.16701,-6.28223 0,-3.45186 2.77277,-6.24424 6.16701,-6.24424 z"
     style="fill:#ffffff;stroke-width:1.22581"
     id="path37" />
</svg>
