<?xml version="1.0" encoding="UTF-8" standalone="no"?>
<svg
   fill="none"
   height="460mm"
   width="580mm"
   viewBox="670.088 32.462265 1950.2661 2312.1743"
   version="1.1"
   id="svg8"
   sodipodi:docname="react_white.svg"
   inkscape:version="1.1.2 (0a00cf5339, 2022-02-04, custom)"
   xmlns:inkscape="http://www.inkscape.org/namespaces/inkscape"
   xmlns:sodipodi="http://sodipodi.sourceforge.net/DTD/sodipodi-0.dtd"
   xmlns="http://www.w3.org/2000/svg"
   xmlns:svg="http://www.w3.org/2000/svg">
  <defs
     id="defs12" />
  <sodipodi:namedview
     id="namedview10"
     pagecolor="#ffffff"
     bordercolor="#cccccc"
     borderopacity="1"
     inkscape:pageshadow="0"
     inkscape:pageopacity="1"
     inkscape:pagecheckerboard="0"
     showgrid="false"
     inkscape:zoom="0.39217895"
     inkscape:cx="1019.9426"
     inkscape:cy="832.52811"
     inkscape:window-width="1920"
     inkscape:window-height="983"
     inkscape:window-x="0"
     inkscape:window-y="32"
     inkscape:window-maximized="1"
     inkscape:current-layer="g6"
     units="mm"
     width="580.45831mm"
     inkscape:document-units="mm" />
  <g
     fill="#61dafb"
     id="g6">
    <path
       d="m 2753.7594,977.64582 c 0,-134.20708 -186.86,-261.39544 -473.3561,-340.26862 66.1161,-262.63742 36.7335,-471.59103 -92.7472,-538.489594 -29.8446,-15.69227 -64.73,-23.125638 -102.8392,-23.125638 v 92.088912 c 21.1181,0 38.1092,3.7167 52.3384,10.73638 62.4406,32.21009 89.5339,154.8571 68.4055,312.60441 -5.0409,38.81795 -13.3053,79.69971 -23.4076,121.40778 -89.9959,-19.82157 -188.2459,-35.10027 -291.5473,-45.01106 C 1828.6275,491.19167 1764.349,421.81571 1699.6088,361.11222 1849.2835,235.98772 1989.7801,167.4372 2085.2789,167.4372 V 75.349201 c -126.2675,0 -291.5472,80.938869 -458.6648,221.341949 C 1459.4862,157.11359 1294.2064,77.001174 1167.9493,77.001174 v 92.087986 c 95.0366,0 235.985,68.13775 385.6598,192.43582 -64.2783,60.70434 -128.5566,129.66669 -189.6215,206.06341 -103.7634,9.91079 -202.0134,25.18949 -291.9991,45.42394 -10.5641,-41.29453 -18.3666,-81.35165 -23.8797,-119.75595 -21.57,-157.74729 5.0511,-280.39431 67.04,-313.01714 13.7674,-7.43339 31.6722,-10.73639 52.8005,-10.73639 V 77.413931 c -38.5713,0 -73.4668,7.433368 -103.7632,23.125649 -129.01874,66.89762 -157.93938,275.43839 -91.37158,537.25027 -285.57318,79.28684 -471.51848,206.06434 -471.51848,339.85597 0,134.21618 186.86309,261.40538 473.35619,340.27308 -66.11615,262.6429 -36.73343,471.5901 92.74707,538.4905 29.8448,15.6885 64.7303,23.122 103.3014,23.122 126.2569,0 291.5473,-80.9363 458.6648,-221.3393 167.1175,139.5814 332.4076,219.6956 458.6648,219.6956 38.5609,0 73.4565,-7.4334 103.7633,-23.1313 129.0083,-66.9003 157.9392,-275.441 91.3611,-537.2438 284.6586,-78.8769 470.6047,-206.0661 470.6047,-339.86678 z M 2155.9841,702.21006 c -16.991,53.27472 -38.1092,108.1893 -61.9891,163.11318 -18.8182,-33.03 -38.5608,-66.06937 -60.1408,-99.10852 -21.1182,-33.0329 -43.6223,-65.24294 -66.1162,-96.62758 65.1921,8.67172 128.0948,19.40892 188.2461,32.62292 z m -210.2883,439.79184 c -35.8093,55.7548 -72.5324,108.6103 -110.6416,157.7539 -68.4157,5.3647 -137.7349,8.2551 -207.5264,8.2551 -69.3295,0 -138.659,-2.8904 -206.6026,-7.8488 -38.109,-49.1435 -75.3044,-101.5834 -111.1137,-156.9228 -34.896,-54.0928 -66.5682,-109.0168 -95.4988,-164.34697 28.4688,-55.33943 60.6028,-110.67886 95.0468,-164.77172 35.8096,-55.7457 72.5327,-108.60665 110.6418,-157.74825 68.4158,-5.36861 137.735,-8.25885 207.5265,-8.25885 69.3295,0 138.659,2.89024 206.6024,7.84618 38.1091,49.14151 75.3046,101.58421 111.1141,156.92375 34.8956,54.09276 66.5676,109.01662 95.4986,164.3561 -28.931,55.32996 -60.603,110.66946 -95.0471,164.76236 z m 148.2992,-53.6773 a 1969.267,1771.225 0 0 1 63.3646,164.3468 c -60.151,13.214 -123.5054,24.3685 -189.1595,33.0393 22.4938,-31.7926 44.9876,-64.4165 66.1161,-97.8713 21.118,-33.0299 40.8606,-66.4846 59.6788,-99.5148 z m -465.5535,440.6191 c -42.6983,-39.6507 -85.3965,-83.8356 -127.6329,-132.1479 41.3227,1.6531 83.5588,2.8903 126.2572,2.8903 43.1602,0 85.8585,-0.8219 127.643,-2.8903 a 1793.038,1612.7186 0 0 1 -126.2673,132.1479 z m -341.586,-243.233 c -65.1921,-8.6708 -128.0947,-19.41 -188.2358,-32.6237 16.9807,-53.2711 38.1092,-108.1948 61.9789,-163.1187 18.8286,33.0392 38.571,66.0785 60.1409,99.1084 21.5801,33.0394 43.6222,65.2477 66.116,96.634 z m 339.2966,-859.35189 c 42.6982,39.64248 85.3966,83.82902 127.6329,132.14421 -41.3227,-1.65194 -83.559,-2.89035 -126.2572,-2.89035 -43.1604,0 -85.8585,0.82552 -127.6328,2.89035 a 1792.8338,1612.5349 0 0 1 126.2571,-132.14421 z m -339.7587,243.22833 c -22.4937,31.7974 -44.9874,64.42022 -66.1057,97.86474 -21.1181,33.03939 -40.8605,66.07865 -59.6891,99.10864 a 1965.7795,1768.0883 0 0 1 -63.3545,-164.35046 c 60.1409,-12.80112 123.4954,-23.9512 189.1493,-32.62292 z M 870.889,1186.602 C 708.36148,1124.2449 603.22144,1042.4869 603.22144,977.64582 c 0,-64.83203 105.14004,-147.00552 267.66756,-208.94725 39.48487,-15.2823 82.64499,-28.90985 127.18101,-41.71087 26.16919,80.93688 60.60299,165.17877 103.30109,251.48913 -42.2361,85.89467 -76.2181,169.72107 -101.92536,250.25097 -45.44987,-12.8077 -88.60989,-26.8434 -128.55674,-42.1258 z m 247.0112,590.1086 c -62.4407,-32.2082 -89.5339,-154.8544 -68.4054,-312.6081 5.0509,-38.8106 13.3053,-79.6986 23.4075,-121.4086 89.9959,19.8253 188.2459,35.1076 291.5472,45.0158 61.9788,76.3928 126.2569,145.768 190.9974,206.4723 -149.675,125.1301 -290.1715,193.6741 -385.6703,193.6741 -20.6561,-0.4063 -38.0988,-4.1277 -51.8764,-11.1455 z m 1089.0467,-314.6672 c 21.5697,157.7445 -5.0513,280.3906 -67.0402,313.0143 -13.7673,7.4334 -31.6719,10.7392 -52.8003,10.7392 -95.0368,0 -235.9852,-68.1378 -385.6601,-192.4368 64.2785,-60.7043 128.5568,-129.6639 189.6217,-206.0661 103.7633,-9.908 202.0133,-25.1903 291.9991,-45.4221 10.5641,41.7102 18.8285,81.7672 23.8798,120.1715 z m 176.7578,-275.4414 c -39.4849,15.2824 -82.6452,28.9119 -127.1812,41.7102 -26.1692,-80.9361 -60.6029,-165.1779 -103.3012,-251.48826 42.2466,-85.89475 76.2183,-169.72108 101.9254,-250.25001 45.4602,12.80203 88.61,26.84234 129.0191,42.12464 162.5283,62.34801 267.6672,144.11522 267.6672,208.94725 -0.4619,64.84108 -105.6008,147.01468 -268.1293,208.95618 z"
       id="path2"
       style="fill:#ffffff;stroke-width:0.97366" />
    <path
       d="m 1097.9348,2166.4029 h -86.7971 v 134.4516 h -48.98201 v -332.3627 h 122.32841 c 41.6214,0 73.6001,8.5283 95.9332,25.5736 22.5032,17.0333 33.7554,41.8432 33.7554,74.4061 0,20.7016 -6.2603,38.7305 -18.7811,54.1094 -12.351,15.3671 -29.6087,26.8578 -51.7737,34.4605 l 86.7978,141.0708 v 2.7423 h -52.2821 z m -86.7971,-35.8377 h 74.8698 c 24.1948,0 43.398,-5.6355 57.6104,-16.8946 14.3811,-11.2594 21.5717,-26.3257 21.5717,-45.1991 0,-20.54 -6.8521,-36.2891 -20.5565,-47.2474 -13.5357,-10.9584 -33.1623,-16.5128 -58.8806,-16.6632 h -74.6148 z m 378.157,174.8602 c -37.2276,0 -67.5144,-10.9584 -90.8628,-32.8751 -23.3499,-22.0674 -35.0239,-51.5174 -35.0239,-88.3385 v -7.7647 c 0,-24.4973 5.1602,-46.3333 15.481,-65.5075 10.4906,-19.3363 25.0416,-34.4026 43.6529,-45.1992 18.7809,-10.9581 39.0844,-16.4432 60.9107,-16.4432 35.7032,0 63.4543,10.5765 83.2413,31.7295 19.8002,21.1531 29.6938,51.4363 29.6938,90.8496 v 17.5774 h -186.0282 c 0.6767,24.3585 8.5452,44.0649 23.6031,59.1315 15.2276,14.9044 34.5158,22.3681 57.8667,22.3681 16.5838,0 30.6201,-3.0434 42.1218,-9.13 11.5147,-6.0868 21.5756,-14.1522 30.2083,-24.1965 l 28.6774,20.0886 c -23.0165,31.7991 -57.5221,47.71 -103.5421,47.71 z m -5.8421,-221.4246 c -18.9498,0 -34.8541,6.2369 -47.7131,18.7115 -12.8592,12.3353 -20.8115,29.6813 -23.8568,52.0495 h 137.5586 v -3.1938 c -1.3508,-21.4542 -7.7835,-38.0477 -19.2856,-49.7699 -11.5145,-11.8612 -27.0817,-17.7973 -46.7031,-17.7973 z m 337.0402,216.8537 c -2.7146,-4.8717 -4.9146,-13.5388 -6.6,-26.0247 -21.8328,20.3893 -47.8857,30.5956 -78.1711,30.5956 -27.0692,0 -49.3137,-6.8504 -66.7467,-20.5512 -17.2526,-13.8514 -25.8852,-31.3479 -25.8852,-52.5008 0,-25.7125 10.8327,-45.6506 32.4854,-59.803 21.8201,-14.314 52.453,-21.4654 91.8729,-21.4654 h 45.6855 v -19.3941 c 0,-14.7656 -4.9146,-26.4878 -14.7181,-35.1548 -9.8164,-8.8295 -24.29,-13.2381 -43.4083,-13.2381 -16.7511,0 -30.7872,3.7955 -42.1218,11.4098 -11.3347,7.6025 -17.0083,16.8134 -17.0083,27.6214 h -47.2035 c 0,-12.3239 4.8242,-24.1964 14.4605,-35.6175 9.8166,-11.5602 23.0166,-20.6903 39.6004,-27.3903 16.7509,-6.6884 35.0973,-10.0442 55.0644,-10.0442 31.6492,0 56.4284,7.1514 74.3629,21.4655 17.9346,14.1521 27.2365,33.7083 27.9184,58.6571 v 113.6806 c 0,22.6804 3.2162,40.7091 9.6491,54.0975 v 3.6566 z m -77.9137,-32.1809 c 14.7182,0 28.6773,-3.4251 41.8772,-10.2756 13.1872,-6.8504 22.7464,-15.7493 28.6773,-26.7076 v -50.6725 h -36.8083 c -57.5219,0 -86.2892,15.1359 -86.2892,45.419 0,13.2381 4.9146,23.5947 14.718,31.0469 9.8166,7.4522 22.4248,11.1898 37.825,11.1898 z m 301.2469,2.2797 c 16.751,0 31.3922,-4.5709 43.9101,-13.701 12.5182,-9.1299 19.4528,-20.5397 20.8037,-34.2406 h 44.4249 c -0.849,14.1522 -6.2657,27.6218 -16.2494,40.4085 -9.9836,12.7867 -23.351,22.9813 -40.102,30.584 -16.5835,7.6141 -34.171,11.4212 -52.7873,11.4212 -37.3873,0 -67.1709,-11.1899 -89.3384,-33.5581 -21.9872,-22.53 -32.9874,-53.2643 -32.9874,-92.2263 v -7.0706 c 0,-24.0458 4.902,-45.4303 14.7184,-64.1418 9.8164,-18.7231 23.8528,-33.2571 42.1345,-43.6024 18.4366,-10.3567 40.1791,-15.529 65.2157,-15.529 30.8,0 56.3511,8.2968 76.6529,24.8907 20.4692,16.5823 31.3792,38.1172 32.743,64.5933 h -44.4249 c -1.3509,-15.9804 -8.1183,-29.0682 -20.3017,-39.2629 -12.0038,-10.3452 -26.9021,-15.5175 -44.6693,-15.5175 -23.8528,0 -42.379,7.7528 -55.5793,23.2822 -13.0199,15.3673 -19.5428,37.666 -19.5428,66.8845 v 7.9846 c 0,28.4546 6.5229,50.3716 19.5428,65.7388 13.0328,15.3788 31.6491,23.0624 55.8365,23.0624 z m 225.6233,-276.8879 v 59.8026 h 51.2692 v 32.6438 h -51.2692 v 153.1632 c 0,9.8938 2.2899,17.3459 6.8573,22.368 4.5674,4.8719 12.351,7.3133 23.351,7.3133 5.4036,0 12.8526,-0.914 22.3218,-2.7425 v 34.2407 c -12.3509,3.0433 -24.3545,4.5709 -36.0363,4.5709 -20.9711,0 -36.7958,-5.7164 -47.4612,-17.126 -10.6527,-11.4099 -15.9791,-27.6217 -15.9791,-48.6244 v -153.1632 h -50.0084 v -32.6438 h 50.0084 v -59.8026 z"
       id="path4"
       style="fill:#ffffff;stroke-width:1.22015"
       sodipodi:nodetypes="cccccscscccccccscsccccscssccscscccscccsscccccsccscscscscscccccsccscccscccsscsssccscscssccsccccscsscscccccscsccscscccccc" />
    <ellipse
       style="fill:#ffffff;stroke:#256eff;stroke-width:0"
       id="path537"
       cx="1631.0636"
       cy="979.45837"
       rx="195.8214"
       ry="185.38474" />
  </g>
</svg>
