<?xml version="1.0" encoding="UTF-8" standalone="no"?>
<svg
   width="580mm"
   height="470mm"
   viewBox="0 0 57.872127 46.90107"
   preserveAspectRatio="xMinYMin meet"
   version="1.1"
   id="svg6"
   sodipodi:docname="redux-saga_white.svg"
   inkscape:version="1.1.2 (0a00cf5339, 2022-02-04, custom)"
   xmlns:inkscape="http://www.inkscape.org/namespaces/inkscape"
   xmlns:sodipodi="http://sodipodi.sourceforge.net/DTD/sodipodi-0.dtd"
   xmlns="http://www.w3.org/2000/svg"
   xmlns:svg="http://www.w3.org/2000/svg">
  <defs
     id="defs10" />
  <sodipodi:namedview
     id="namedview8"
     pagecolor="#ffffff"
     bordercolor="#cccccc"
     borderopacity="1"
     inkscape:pageshadow="0"
     inkscape:pageopacity="1"
     inkscape:pagecheckerboard="0"
     showgrid="false"
     inkscape:zoom="0.28441002"
     inkscape:cx="534.43968"
     inkscape:cy="581.90636"
     inkscape:window-width="1920"
     inkscape:window-height="983"
     inkscape:window-x="0"
     inkscape:window-y="32"
     inkscape:window-maximized="1"
     inkscape:current-layer="svg6"
     units="mm"
     width="320mm"
     inkscape:document-units="mm" />
  <path
     fill="#89d96d"
     d="m 30.919261,13.620793 a 2.2339317,2.3065862 0 0 1 3.354778,-1.996785 c 2.02442,-0.767378 4.279044,-1.168872 6.623335,-1.168872 6.277598,0 11.66197,2.895027 13.482051,7.061306 -0.01557,0.986374 -1.372605,1.445732 -1.91406,0.840376 -1.492449,-3.346376 -6.206899,-5.755337 -11.567991,-5.755337 -1.948546,0 -3.818633,0.307128 -5.511973,0.89379 a 2.2347938,2.3074765 0 1 1 -4.46614,0.125522 z m 25.100909,8.585381 a 2.2347938,2.3074765 0 1 0 -3.988486,1.428819 c -0.713891,1.133262 -1.82353,2.159699 -3.245279,2.984052 -2.195996,1.271247 -4.997247,1.971859 -7.889891,1.971859 -2.504659,0 -4.909305,-0.511883 -6.956142,-1.482232 -1.38295,-0.656101 -2.533111,-1.484016 -3.392713,-2.437451 -0.569907,-0.342739 -1.887332,0.750463 -1.40968,1.583719 2.581394,2.772178 6.95959,4.483198 11.758535,4.483198 3.242691,0 6.406063,-0.797646 8.907274,-2.246939 1.833013,-1.062045 3.255625,-2.437452 4.150577,-3.984671 a 2.2365182,2.3092569 0 0 0 2.065805,-2.300354 z"
     id="path2"
     style="fill:#ffffff;stroke-width:0.876098" />
  <path
     fill="#999999"
     d="M 12.965038,26.536252 C 10.926823,23.807698 9.7723513,19.957453 9.7723513,15.800078 c 0,-3.783479 0.9665137,-7.354192 2.7210677,-10.0551502 1.83905,-2.8336024 4.327329,-4.3932858 7.005288,-4.3932858 2.440856,0 4.767904,1.3282236 6.553499,3.7389667 1.685579,2.2772086 2.782284,5.3832223 3.086635,8.7474003 A 21.540068,22.24062 0 0 0 26.90491,12.731454 C 26.040134,7.3838416 22.991434,3.4979869 19.498707,3.4979869 c -1.963205,0 -3.838466,1.2222862 -5.280047,3.4425201 -1.526936,2.3510973 -2.368435,5.49806 -2.368435,8.860461 0,3.696235 1.057908,7.205522 2.853848,9.546827 a 2.2347938,2.3074765 0 1 1 -1.739035,1.188457 z M 28.86639,15.158221 C 25.217606,12.982499 21.146349,12.118976 17.776914,12.726113 a 2.2347938,2.3074765 0 1 0 0.631986,2.062662 c 2.83574,-0.43265 6.27846,0.356093 9.41769,2.228246 3.834155,2.285222 6.545738,5.832788 7.075986,9.122188 0.661297,0.284874 1.38295,0.528798 2.164093,0.718418 C 36.863193,22.58452 33.68775,18.030995 28.86639,15.158221 Z m 0.550938,17.786798 c -2.012349,0.2644 -4.295425,-0.06589 -6.540565,-0.932961 -0.644918,0.514553 -1.327771,0.997058 -2.045113,1.443062 2.384816,1.130594 4.88344,1.724377 7.201004,1.724377 0.561284,0 1.113086,-0.03473 1.648505,-0.105054 2.775386,-0.364104 4.974829,-1.656718 6.239661,-3.654395 a 19.206121,19.830767 0 0 1 -2.112363,-0.66322 c -0.973411,1.172432 -2.498624,1.93981 -4.391129,2.188185 z M 27.192018,24.51276 A 2.2347938,2.3074765 0 1 0 25.33745,23.529055 c -0.425059,1.055813 -1.048421,2.112516 -1.84336,3.119366 -1.229482,1.556123 -2.846085,2.955564 -4.674788,4.046097 -2.552942,1.523184 -5.302464,2.340414 -7.831265,2.339524 -0.263829,0 -0.525934,-0.009 -0.784591,-0.02671 C 7.620328,32.828399 5.6579854,31.762794 4.6759516,30.00815 2.936054,26.895906 4.6707032,22.215075 8.71617,18.772555 A 21.373665,22.068806 0 0 1 8.5351097,16.463298 l -0.114676,-0.164693 c -2.6348493,1.955837 -4.660994,4.480529 -5.7068281,7.106709 -1.1079132,2.782859 -1.0501466,5.508744 0.1620858,7.675563 1.3389794,2.393831 3.8919199,3.839562 7.1880686,4.068353 0.302629,0.02047 0.608706,0.03115 0.917369,0.03115 2.892644,0 6.00946,-0.916936 8.877101,-2.627069 3.418578,-2.036846 6.043081,-4.946119 7.333778,-8.040558 z"
     id="path4"
     style="fill:#e6e6e6;stroke-width:0.876098" />
  <text
     xml:space="preserve"
     style="font-style:normal;font-weight:normal;font-size:7.66679px;line-height:1.25;font-family:sans-serif;fill:#ffffff;fill-opacity:1;stroke:none;stroke-width:0.191669"
     x="7.0261321"
     y="40.930416"
     id="text648"
     transform="scale(0.95011777,1.0525011)"><tspan
       sodipodi:role="line"
       id="tspan646"
       style="font-style:normal;font-variant:normal;font-weight:normal;font-stretch:normal;font-family:'Open Sans';-inkscape-font-specification:'Open Sans';fill:#ffffff;stroke-width:0.191669"
       x="7.0261321"
       y="40.930416">Redux - Saga</tspan></text>
</svg>
